HIERARCHY
ROOT hip
{
	OFFSET 0.000000 0.000000 0.000000 
	CHANNELS 6 Xposition Yposition Zposition Xrotation Zrotation Yrotation
	JOINT abdomen
	{
		OFFSET 0.000000 3.402643 0.000000 
		CHANNELS 3 Xrotation Zrotation Yrotation
		JOINT chest
		{
			OFFSET 0.000000 8.438565 -0.680529 
			CHANNELS 3 Xrotation Zrotation Yrotation
			JOINT neck
			{
				OFFSET 0.000000 10.207942 -0.272212 
				CHANNELS 3 Xrotation Zrotation Yrotation
				JOINT head
				{
					OFFSET 0.000000 3.130431 0.000000 
					CHANNELS 3 Xrotation Zrotation Yrotation
					End Site
					{
						OFFSET 0.000000 3.130435 0.000000 
					}
				}
			}
			JOINT lCollar
			{
				OFFSET 3.470700 6.669187 -0.816635 
				CHANNELS 3 Yrotation Zrotation Xrotation
				JOINT lShldr
				{
					OFFSET 3.198488 0.000000 0.000000 
					CHANNELS 3 Zrotation Yrotation Xrotation
					JOINT lForeArm
					{
						OFFSET 10.139888 0.000000 0.000000 
						CHANNELS 3 Yrotation Zrotation Xrotation
						JOINT lHand
						{
							OFFSET 8.370511 0.000000 0.000000 
							CHANNELS 3 Zrotation Yrotation Xrotation
							End Site
							{
								OFFSET 4.083176 0.000000 0.000000 
							}
						}
					}
				}
			}
			JOINT rCollar
			{
				OFFSET -3.470700 6.669187 -0.816635 
				CHANNELS 3 Yrotation Zrotation Xrotation
				JOINT rShldr
				{
					OFFSET -3.198488 0.000000 0.000000 
					CHANNELS 3 Zrotation Yrotation Xrotation
					JOINT rForeArm
					{
						OFFSET -10.139888 0.000000 0.000000 
						CHANNELS 3 Yrotation Zrotation Xrotation
						JOINT rHand
						{
							OFFSET -8.370511 0.000000 0.000000 
							CHANNELS 3 Zrotation Yrotation Xrotation
							End Site
							{
								OFFSET -4.083176 0.000000 0.000000 
							}
						}
					}
				}
			}
		}
	}
	JOINT lThigh
	{
		OFFSET 5.308129 -1.633274 1.361059 
		CHANNELS 3 Xrotation Zrotation Yrotation
		JOINT lShin
		{
			OFFSET -2.041588 -20.007561 0.000000 
			CHANNELS 3 Xrotation Zrotation Yrotation
			JOINT lFoot
			{
				OFFSET 0.000000 -19.190928 -1.224953 
				CHANNELS 3 Xrotation Yrotation Zrotation
				End Site
				{
					OFFSET 0.000000 -2.449906 4.627600 
				}
			}
		}
	}
	JOINT rThigh
	{
		OFFSET -5.308129 -1.633274 1.361059 
		CHANNELS 3 Xrotation Zrotation Yrotation
		JOINT rShin
		{
			OFFSET 2.041588 -20.007561 0.000000 
			CHANNELS 3 Xrotation Zrotation Yrotation
			JOINT rFoot
			{
				OFFSET 0.000000 -19.190928 -1.224953 
				CHANNELS 3 Xrotation Yrotation Zrotation
				End Site
				{
					OFFSET 0.000000 -2.449906 4.627600 
				}
			}
		}
	}
}
MOTION
Frames: 15
Frame Time: 0.033333
-0.770656 37.921211 -9.095479 4.746094 -7.919922 57.451172 40.205078 4.492188 5.332796 -21.250000 4.531250 2.773438 -19.990234 -5.820313 -30.762707 3.359375 3.515625 -31.561897 4.199219 2.744141 0.136719 -65.390625 -5.380859 37.529301 -65.312500 -0.996094 10.205078 7.958983 -11.289062 -1.328125 -6.503906 -2.578125 0.048828 20.371094 33.681641 -24.574663 26.250000 3.349609 -38.867188 9.658202 -12.314453 -2.607422 -51.635979 28.414660 6.859083 80.702110 1.583665 -4.048631 -28.558289 1.276101 -4.931128 -66.525604 -34.420681 5.502573 56.147663 -0.361264 3.137003 -7.528226 -9.962373 3.559723 
-0.531339 38.173054 -10.515284 4.394531 -8.095703 56.570896 40.009766 3.837891 5.098310 -21.064451 5.048828 2.959844 -19.296875 -5.283204 -30.625898 3.359375 3.515625 -31.386116 4.208984 2.548828 -0.029297 -65.380859 -5.537109 37.450230 -66.357422 -0.947266 10.302896 7.988280 -11.445313 -1.503906 -5.976563 -1.865234 -0.028979 21.738281 33.339844 -24.384764 26.992191 3.242188 -39.375553 8.095704 -11.582032 -2.199226 -51.941547 26.287943 7.343701 81.065956 1.592980 -3.718673 -29.436993 3.257172 -3.953883 -65.215385 -33.228893 6.724137 53.530369 -0.009767 3.028150 -12.920532 -14.280111 1.497481 
-0.314916 38.461494 -11.899555 3.867188 -8.271485 55.691952 39.814453 3.388672 5.313077 -20.888672 5.224610 3.310547 -18.779297 -4.570313 -30.498051 3.535156 3.515625 -31.210936 4.208984 2.548828 -0.029297 -65.048828 -5.634766 37.441410 -67.392578 -1.044922 10.088068 7.949219 -11.113281 -1.330007 -5.634766 -0.791029 -0.097521 23.007813 32.832031 -23.734938 27.734375 3.203125 -39.736328 6.816407 -9.619141 -1.525069 -51.917580 24.683296 8.373103 81.234016 1.768836 -3.753430 -30.226749 4.867558 -2.762255 -63.376026 -32.157196 7.314890 51.946388 -0.185433 2.689317 -19.367067 -19.282372 -1.976952 
-0.116856 38.735508 -13.212400 3.164063 -8.437423 54.637493 39.785160 2.773438 5.469223 -20.888672 5.576172 3.837891 -18.085936 -4.208984 -30.352274 3.359375 3.691406 -31.034525 4.208984 2.548828 -0.029297 -64.833984 -5.878906 37.402348 -68.603516 -0.927734 9.970860 8.300781 -10.751952 -1.347656 -5.458984 -0.097656 -0.019515 23.994143 32.441406 -22.660776 28.320311 3.339844 -40.478516 5.664063 -8.115234 -1.241613 -52.180531 23.335438 8.953025 81.065598 1.592963 -3.728274 -30.612822 6.252374 -1.946483 -62.036137 -31.121239 6.494673 50.710144 -0.009714 2.907948 -24.445625 -24.724123 -6.411960 
0.058666 38.993313 -14.452746 2.460938 -8.613281 53.613285 39.765629 2.490235 5.742612 -20.712891 6.103516 4.200257 -17.226563 -4.023438 -30.186234 2.832031 4.042969 -30.878906 4.208984 2.373047 -0.009766 -64.677734 -6.210938 37.166908 -69.492188 -0.898438 10.468750 8.115234 -10.585938 -1.339685 -5.273438 0.625000 -0.136719 24.931643 32.246094 -22.016273 28.564451 3.408203 -41.445316 4.199219 -7.646485 -0.957031 -52.077190 22.390739 9.835620 80.890564 1.426912 -3.867141 -30.947359 7.447176 -0.627531 -61.315552 -30.233372 6.327415 51.769958 -0.202892 2.692822 -22.812346 -26.014263 -5.943328 
0.196867 39.227619 -15.589354 1.572266 -8.789063 52.879364 39.921875 2.373047 6.074624 -20.712891 6.455078 4.551879 -16.533203 -4.003906 -29.999998 2.480469 4.570313 -30.712109 4.208984 2.373047 -0.009766 -64.443359 -6.611328 37.070309 -70.361320 -0.888672 10.420074 8.124999 -10.761719 -1.337891 -5.097657 1.142578 -0.087891 26.064453 32.216797 -20.673830 29.072266 3.300781 -42.793530 2.714844 -6.298828 -0.693359 -51.917004 21.518940 10.734903 80.539719 1.417201 -3.850605 -31.200165 8.135243 -0.335016 -60.813305 -29.352922 6.075037 55.102226 -0.517415 3.023381 -17.776897 -21.719879 -2.298429 
0.309669 39.432713 -16.633905 0.869141 -8.974609 52.353516 39.921875 2.480469 6.299251 -20.537109 6.630859 4.726563 -15.859375 -3.808594 -29.659130 2.294922 4.746094 -30.370289 4.208984 2.197265 0.000000 -64.257813 -6.738281 36.678543 -71.035156 -0.966797 10.039227 8.124999 -11.113280 -1.337891 -4.570313 1.865235 -0.224609 27.099607 31.943357 -19.355467 29.550779 3.388672 -42.783199 1.259766 -4.921875 -0.430524 -51.920067 20.827673 11.552822 80.182686 1.417671 -3.989185 -31.167574 9.096498 0.174700 -59.933510 -28.298086 5.652504 59.834042 -0.546956 3.218269 -15.155492 -16.541613 0.148068 
0.400650 39.620281 -17.587120 0.341797 -8.964835 52.029755 39.921875 2.480469 6.299251 -20.361328 6.630859 4.726563 -15.341797 -3.447266 -29.512304 2.470703 4.746094 -30.184736 4.384766 2.373047 -0.019531 -64.169922 -6.660156 36.239101 -71.396484 -0.908203 10.380859 8.339843 -11.435547 -1.523438 -4.218750 2.382813 -0.195312 28.300779 31.650391 -18.486328 30.039063 3.388672 -42.920494 0.000000 -3.886719 -0.322266 -51.772381 19.967319 12.134402 79.653496 1.603103 -3.846939 -31.099501 9.395424 0.354023 -58.811913 -27.233967 4.512942 65.623657 -0.898397 3.094348 -14.629664 -12.983367 1.362779 
0.479826 39.794373 -18.474873 -0.175781 -9.150390 51.669922 39.560547 2.587891 6.523878 -20.009768 6.630859 4.736328 -15.361329 -3.603516 -29.326172 2.656250 4.746094 -30.000000 4.560547 2.197266 -0.010140 -64.267578 -7.167968 35.654297 -71.582031 -0.830078 10.713058 8.535156 -11.962891 -1.535227 -4.208984 2.910156 -0.156746 29.365234 31.679688 -17.724609 30.400391 3.417969 -43.212891 -1.074219 -3.007822 -0.195825 -51.956856 19.253778 12.903893 78.777229 1.417971 -3.939930 -31.167011 9.850054 0.720842 -57.190083 -26.159262 2.444031 71.606110 -1.249887 3.262427 -14.940199 -12.561850 1.546137 
0.549583 39.952965 -19.313972 -0.351563 -9.150390 50.947266 39.208988 2.421875 6.465256 -19.833984 6.455079 4.912108 -15.019533 -3.242188 -29.179924 2.656250 4.746094 -29.824219 4.736328 2.197266 -0.019531 -64.443359 -7.275390 34.882813 -72.089844 -0.986328 10.556643 8.564453 -12.285155 -1.708984 -4.023438 3.447266 -0.303318 30.527346 31.582033 -17.280041 30.527346 3.378906 -43.066982 -2.314453 -2.138672 -0.098019 -52.011955 18.252275 13.696935 78.257149 1.253408 -3.893175 -30.991837 10.596528 1.054287 -55.317341 -24.597548 -0.260221 77.200562 -1.767423 3.423925 -16.322176 -13.932002 0.655524 
0.625897 40.105473 -20.124336 -0.351563 -9.150390 50.244141 38.837891 2.197266 6.562499 -19.482424 6.455079 5.273437 -14.843750 -3.066406 -29.189974 2.470703 4.746094 -29.657394 4.736328 2.197266 -0.019531 -64.843750 -7.148438 34.130863 -72.773438 -0.937500 9.951173 8.232422 -12.821966 -1.691535 -3.847656 3.623047 -0.302734 32.148441 31.455076 -17.016390 30.742184 3.447266 -42.089550 -3.544922 -1.259766 -0.166229 -51.672367 17.377897 14.107342 77.353317 1.261394 -4.011665 -31.099920 11.439083 1.491994 -53.490311 -22.975872 -2.838110 82.441933 -2.118740 3.503906 -17.691076 -14.010105 0.020926 
0.700900 40.251064 -20.915739 -0.175781 -9.150390 49.218750 38.291016 1.914063 6.835938 -19.130861 6.455078 5.625000 -14.521482 -3.212891 -28.828674 2.294922 5.097656 -29.492189 4.912109 1.855469 -0.000316 -65.058594 -6.933594 33.525391 -73.281250 -1.005859 9.404467 8.300781 -14.033202 -1.904297 -3.496094 3.974609 -0.302734 33.271484 31.259771 -16.181643 30.869143 3.359375 -41.572842 -5.136719 -0.722656 -0.078125 -51.555687 16.245737 15.212740 76.316246 1.242905 -3.798833 -30.983633 12.452719 2.226832 -51.127563 -21.267052 -5.704649 86.660133 -2.470780 3.501487 -18.232752 -12.845216 0.435360 
0.768748 40.401787 -21.695221 0.341797 -9.150391 47.986729 37.753906 1.357422 6.826172 -18.779297 6.279297 5.987396 -14.003907 -3.378906 -28.642578 2.294922 5.097656 -29.316404 4.912109 1.679688 0.019245 -65.517578 -6.699219 33.066402 -73.789063 -1.123047 8.691599 8.154297 -15.097657 -1.897075 -3.134765 4.326171 -0.313237 34.433594 30.869143 -15.439455 30.869143 3.339844 -40.684162 -6.367188 -0.205078 -0.146484 -51.597622 15.221974 15.980687 75.455032 1.086379 -3.715119 -30.920324 13.702390 2.887114 -48.458828 -19.302319 -8.897158 90.024345 -2.656093 3.252229 -18.589558 -11.861216 0.756829 
0.829441 40.553940 -22.469454 0.869141 -8.974609 46.552734 37.031250 0.751953 6.982535 -18.603516 6.279297 6.337891 -13.681640 -3.525390 -28.281851 2.470703 5.273438 -29.130480 5.263672 1.503906 0.019275 -65.976563 -6.103516 32.538025 -74.482422 -1.054688 8.642757 7.666016 -16.337891 -1.867982 -2.783203 4.667969 -0.323060 35.439453 30.488285 -13.657154 31.103518 3.398438 -41.123631 -8.300781 1.552734 -0.263407 -51.480541 14.021110 17.001005 74.037476 1.077079 -3.996986 -30.902313 15.196927 3.781905 -45.318653 -17.576054 -12.483427 92.432228 -3.183001 3.663252 -18.578049 -11.694301 1.446797 
0.877019 40.718254 -23.234863 1.406250 -8.964844 45.175781 36.298824 0.302734 7.197265 -18.427734 6.279297 6.690521 -13.525391 -4.033203 -28.066406 2.822266 5.273437 -28.769531 5.439453 1.152344 0.048828 -66.269531 -5.820313 32.412109 -75.175781 -1.123047 8.095895 7.519531 -17.402344 -1.855469 -2.431640 4.667969 -0.352357 36.757816 30.332033 -13.139599 31.240232 3.281250 -41.132809 -8.486328 2.753906 -0.449219 -51.459229 13.121621 17.877975 72.812363 0.920782 -3.708117 -30.535231 16.026300 4.142155 -41.960358 -15.623322 -15.505458 93.333603 -2.812114 3.715780 -18.736273 -10.870101 1.309996 
